<svg xmlns="http://www.w3.org/2000/svg" width="206" height="183" fill="none"><rect width="12.682" height="12.682" x="5.481" y="68.336" stroke="#C3C3C3" stroke-width=".617" rx="6.341"/><rect width="8.455" height="8.455" x="173.654" y="152.509" stroke="#C3C3C3" stroke-width=".411" rx="4.227"/><rect width="8.455" height="8.455" x="118.654" y="4.509" stroke="#C3C3C3" stroke-width=".411" rx="4.227"/><path fill="#C3C3C3" fill-rule="evenodd" d="m77.659 38.009-.506-1.78-6.23 1.769-1.77-6.231-1.78.505 1.77 6.231-6.231 1.77.505 1.78 6.231-1.77 1.769 6.23 1.78-.505-1.769-6.23 6.23-1.77Z" clip-rule="evenodd"/><path fill="#C3C3C3" fill-rule="evenodd" d="m25.932 146.672 1.603.477 1.669-5.613 5.612 1.669.477-1.603-5.612-1.669 1.668-5.612-1.604-.476-1.668 5.611-5.612-1.668-.476 1.603 5.611 1.669-1.668 5.612ZM176.209 48.488l1.52.452 1.582-5.321 5.321 1.582.452-1.52-5.321-1.582 1.582-5.32-1.52-.453-1.582 5.32-5.32-1.581-.452 1.52 5.32 1.582-1.582 5.321Z" clip-rule="evenodd" opacity=".7"/><path fill="#C3C3C3" fill-rule="evenodd" d="m193.591 119.279 1.209-.46-1.61-4.233 4.234-1.61-.46-1.209-4.234 1.61-1.609-4.234-1.21.46 1.61 4.234-4.233 1.609.46 1.21 4.233-1.61 1.61 4.233Z" clip-rule="evenodd"/><ellipse cx="108.108" cy="180.781" fill="#767477" opacity=".35" rx="59.108" ry="1.97"/><path fill="#C2C2C2" d="M76.445 63.22a44.018 44.018 0 0 0-9.674 14.292 43.563 43.563 0 0 0-3.397 16.86 43.564 43.564 0 0 0 3.397 16.859 44.021 44.021 0 0 0 9.674 14.292c.581.593.902 1.388.895 2.213a3.129 3.129 0 0 1-.933 2.198 3.209 3.209 0 0 1-2.227.921 3.207 3.207 0 0 1-2.242-.883 50.302 50.302 0 0 1-11.056-16.334A49.782 49.782 0 0 1 57 94.371c0-6.611 1.32-13.158 3.882-19.267A50.307 50.307 0 0 1 71.938 58.77a3.21 3.21 0 0 1 2.242-.883 3.209 3.209 0 0 1 2.227.922c.59.583.926 1.372.933 2.197a3.126 3.126 0 0 1-.895 2.214Zm13.528 13.354c-4.78 4.72-7.466 11.122-7.466 17.797 0 6.675 2.686 13.077 7.466 17.798a3.135 3.135 0 0 1 .935 2.227 3.115 3.115 0 0 1-.935 2.228 3.215 3.215 0 0 1-3.478.683 3.183 3.183 0 0 1-1.035-.683 31.444 31.444 0 0 1-6.912-10.209 31.118 31.118 0 0 1-2.427-12.044c0-4.133.825-8.225 2.427-12.043a31.443 31.443 0 0 1 6.912-10.21 3.213 3.213 0 0 1 2.256-.922c.847 0 1.659.332 2.257.922a3.13 3.13 0 0 1 .935 2.228 3.13 3.13 0 0 1-.935 2.228Zm36.057-4.456a3.22 3.22 0 0 1 4.513 0 31.433 31.433 0 0 1 6.912 10.21 31.105 31.105 0 0 1 0 24.087 31.433 31.433 0 0 1-6.912 10.209 3.213 3.213 0 0 1-3.478.683 3.179 3.179 0 0 1-1.727-1.705 3.122 3.122 0 0 1 .692-3.433c4.78-4.721 7.466-11.123 7.466-17.798 0-6.675-2.686-13.076-7.466-17.797a3.146 3.146 0 0 1-.693-1.022 3.106 3.106 0 0 1 0-2.412c.161-.382.396-.73.693-1.022Zm13.528-13.341a3.206 3.206 0 0 1 2.253-.922 3.21 3.21 0 0 1 2.254.922C153.628 68.218 159 81.023 159 94.374c0 13.352-5.372 26.157-14.935 35.598a3.208 3.208 0 0 1-2.242.883 3.206 3.206 0 0 1-2.226-.921 3.128 3.128 0 0 1-.934-2.198 3.124 3.124 0 0 1 .895-2.213 44.026 44.026 0 0 0 9.674-14.292 43.563 43.563 0 0 0 3.398-16.86 43.561 43.561 0 0 0-3.398-16.859 44.023 44.023 0 0 0-9.674-14.292 3.125 3.125 0 0 1-.934-2.225c0-.834.336-1.634.934-2.224v.006ZM120.752 94.37c0 3.339-1.344 6.54-3.735 8.9a12.832 12.832 0 0 1-9.015 3.687 12.832 12.832 0 0 1-9.016-3.687 12.504 12.504 0 0 1-3.734-8.9c0-3.338 1.343-6.54 3.734-8.9a12.834 12.834 0 0 1 9.016-3.686c3.381 0 6.624 1.326 9.015 3.686a12.506 12.506 0 0 1 3.735 8.9Z"/><path fill="#767477" d="M120.5 94.371a12.5 12.5 0 0 1-3.735 8.9 12.832 12.832 0 0 1-9.015 3.687 12.83 12.83 0 0 1-9.016-3.687 12.504 12.504 0 0 1-3.734-8.9c0-3.338 1.343-6.54 3.734-8.9a12.833 12.833 0 0 1 9.016-3.686c3.381 0 6.624 1.326 9.015 3.686a12.502 12.502 0 0 1 3.735 8.9Z"/></svg>